<?xml version="1.0" encoding="UTF-8"?>
<svg id="Camada_2" data-name="Camada 2" xmlns="http://www.w3.org/2000/svg" viewBox="0 0 437.42 393.44">
  <metadata><?xpacket begin="﻿" id="W5M0MpCehiHzreSzNTczkc9d"?>
<x:xmpmeta xmlns:x="adobe:ns:meta/" x:xmptk="Adobe XMP Core 9.1-c002 79.a1cd12f, 2024/11/11-19:08:46        ">
   <rdf:RDF xmlns:rdf="http://www.w3.org/1999/02/22-rdf-syntax-ns#">
      <rdf:Description rdf:about=""
            xmlns:xmp="http://ns.adobe.com/xap/1.0/"
            xmlns:xmpMM="http://ns.adobe.com/xap/1.0/mm/"
            xmlns:stEvt="http://ns.adobe.com/xap/1.0/sType/ResourceEvent#">
         <xmp:Rating>4</xmp:Rating>
         <xmp:MetadataDate>2026-03-04T11:37:57-03:00</xmp:MetadataDate>
         <xmpMM:InstanceID>xmp.iid:a8def104-4c47-f148-b4b7-9cef2e178d5e</xmpMM:InstanceID>
         <xmpMM:DocumentID>xmp.did:a8def104-4c47-f148-b4b7-9cef2e178d5e</xmpMM:DocumentID>
         <xmpMM:OriginalDocumentID>xmp.did:a8def104-4c47-f148-b4b7-9cef2e178d5e</xmpMM:OriginalDocumentID>
         <xmpMM:History>
            <rdf:Seq>
               <rdf:li>
                  <rdf:Description>
                     <stEvt:action>saved</stEvt:action>
                     <stEvt:instanceID>xmp.iid:a8def104-4c47-f148-b4b7-9cef2e178d5e</stEvt:instanceID>
                     <stEvt:when>2026-03-04T11:37:57-03:00</stEvt:when>
                     <stEvt:softwareAgent>Adobe Bridge 2026</stEvt:softwareAgent>
                     <stEvt:changed>/metadata</stEvt:changed>
                  </rdf:Description>
               </rdf:li>
            </rdf:Seq>
         </xmpMM:History>
      </rdf:Description>
   </rdf:RDF>
</x:xmpmeta>
                                                                                                    
                                                                                                    
                                                                                                    
                                                                                                    
                                                                                                    
                                                                                                    
                                                                                                    
                                                                                                    
                                                                                                    
                                                                                                    
                                                                                                    
                                                                                                    
                                                                                                    
                                                                                                    
                                                                                                    
                                                                                                    
                                                                                                    
                                                                                                    
                                                                                                    
                                                                                                    
                           
<?xpacket end="w"?></metadata>
<g id="Camada_2-2" data-name="Camada 2">
    <g>
      <path d="M420.16,298.08c-10.92-10.19-24.47-15.36-40.28-15.36s-29.37,5.12-40.72,15.36c-11.17,10.42-16.83,23.73-16.83,39.58s5.61,29.61,16.68,40.29l.29.27c11.2,10.1,24.84,15.22,40.57,15.22s29.36-5.17,40.27-15.35c11.3-10.53,17.28-24.51,17.28-40.43s-5.86-29.25-17.26-39.58Z"/>
      <path d="M258.03,116.93c-16.23-11.47-35.63-17.19-58.18-17.19-18.44,0-34.89,4.24-49.31,12.73-13.91,8.23-25.56,20.04-34.99,35.44-.64,1.05-1.78,1.71-3.01,1.71h0c-1.97,0-3.56-1.59-3.56-3.56V60.48c0-23.44-16.74-43.54-39.8-47.77L0,0v393.44h60.41c25.74,0,46.82-18.56,48.47-46.35.12-1.96,1.66-3.52,3.62-3.52h0c1.26,0,2.42.67,3.08,1.75,9.43,15.42,21.07,27.22,34.97,35.4,14.42,8.49,30.82,12.73,49.31,12.73,22.56,0,41.95-5.71,58.18-17.19,16.28-11.47,28.66-28.1,37.14-49.87,8.88-22.17,13.29-48.79,13.29-79.79s-4.42-57.45-13.29-79.22c-8.53-22.17-20.91-38.96-37.14-50.44ZM188.2,291.49c-8.14,10.69-19.22,16.06-33.25,16.06s-25.33-5.37-33.81-16.06c-8.14-11.08-12.21-26.06-12.21-44.89s4.07-33.64,12.21-44.33c8.49-11.08,19.78-16.62,33.81-16.62s25.11,5.54,33.25,16.62c8.14,10.69,12.21,25.5,12.21,44.33s-4.07,33.81-12.21,44.89Z"/>
    </g>
  </g>
</svg>