<?xml version="1.0" encoding="UTF-8"?>
<svg id="Camada_2" data-name="Camada 2" xmlns="http://www.w3.org/2000/svg" viewBox="0 0 1486.19 306.92">
  <g id="Camada_2-2" data-name="Camada 2">
    <g>
      <g>
        <path d="M996.46,306.92v-146.92c0-30.52,0-60.71-1.68-91.24h22.47l3.35,28.51h2.01c12.08-19.79,30.52-31.87,57.36-31.87,43.94,0,73.12,36.23,73.12,88.89s-29.18,88.89-73.12,88.89c-26.84,0-45.28-12.08-57.36-31.87h-2.01v95.6h-24.15ZM1129.29,154.3c0-40.25-21.47-67.09-54.67-67.09s-54,26.83-54,67.09,21.13,67.09,54,67.09,54.67-26.5,54.67-67.09Z"/>
        <path d="M1311.43,147.93c0,30.86,0,61.05,1.68,91.91h-19.45l-3.69-32.2h-2.01c-10.73,22.81-31.87,35.56-59.71,35.56-33.54,0-55.35-19.79-55.35-49.31,0-32.87,25.83-52.33,71.11-55.01l43.94-2.35v-11.4c0-26.5-20.13-38.57-43.61-38.57s-40.92,12.41-48.3,33.54l-21.47-8.05c8.39-30.52,37.23-46.62,69.77-46.62,40.59,0,67.09,20.46,67.09,59.03v23.48ZM1287.95,158.66v-2.35l-41.26,3.02c-30.52,2.01-50.31,12.07-50.31,34.21,0,17.44,13.75,28.51,35.56,28.51,33.21,0,56.02-27.84,56.02-63.4Z"/>
        <path d="M1368.45,306.92l26.16-65.41-66.75-172.75h25.83l53,144.23h1.34l53-144.23h25.16l-92.91,238.15h-24.82Z"/>
      </g>
      <g>
        <path d="M963.53,166.4c-6.67-6.23-14.95-9.39-24.61-9.39s-17.95,3.13-24.88,9.39c-6.82,6.37-10.28,14.5-10.28,24.18s3.43,18.09,10.19,24.62l.18.17c6.84,6.17,15.18,9.3,24.79,9.3s17.94-3.16,24.6-9.38c6.91-6.43,10.56-14.98,10.56-24.7s-3.58-17.87-10.55-24.18Z"/>
        <path d="M410.32,208.39c0,17.6,14.27,31.87,31.87,31.87h34.12V.01h-65.98v208.38Z"/>
        <path d="M324.23,149.23c0,7.24-1.44,13.63-3.93,19.12-2.25,5.49-5.63,9.79-10.15,12.86-4.28,3.07-9.49,4.61-15.57,4.61-7.88,0-13.98-2.53-18.27-7.58-4.28-5.28-6.42-12.65-6.42-22.11v-87.41h-65.98v104.88c0,21.34,5.18,37.83,15.57,49.48,10.36,11.44,24.8,17.16,43.28,17.19,11.95,0,22.68-2.42,32.15-7.27,6.6-3.38,12.59-7.95,17.86-13.14,1.49-1.47,2.93-2.99,4.31-4.56.69-.79,1.38-1.59,2.04-2.4,1.09-1.33,2.82-3.53,4.75-2.33.74.46.6,1.54.62,2.27.04,1.46.36,2.88.68,4.3.85,3.8,2.31,7.47,4.57,10.66.09.13.19.26.28.39,3.61,4.89,8.71,8.61,14.48,10.54,3.03,1.01,6.21,1.52,9.4,1.52h36.69V68.76h-66.55l.2,80.48Z"/>
        <path d="M157.57,71.4c-9.91-7.01-21.76-10.5-35.53-10.5-11.26,0-21.31,2.59-30.11,7.77-8.49,5.02-15.61,12.24-21.37,21.64-.39.64-1.09,1.04-1.84,1.04h0c-1.2,0-2.17-.97-2.17-2.17v-52.26c0-14.31-10.22-26.59-24.3-29.17L0,0v240.25h36.89c15.72,0,28.59-11.33,29.6-28.3.07-1.2,1.01-2.15,2.21-2.15h0c.77,0,1.48.41,1.88,1.07,5.76,9.42,12.87,16.62,21.35,21.61,8.8,5.18,18.82,7.77,30.11,7.77,13.77,0,25.62-3.49,35.53-10.5,9.94-7.01,17.5-17.16,22.68-30.45,5.42-13.54,8.12-29.79,8.12-48.72s-2.7-35.08-8.12-48.38c-5.21-13.54-12.77-23.79-22.68-30.8ZM114.92,177.99c-4.97,6.53-11.74,9.81-20.3,9.81s-15.46-3.28-20.65-9.81c-4.97-6.77-7.46-15.91-7.46-27.41s2.49-20.54,7.46-27.07c5.18-6.77,12.08-10.15,20.65-10.15s15.33,3.38,20.3,10.15c4.97,6.53,7.46,15.57,7.46,27.07s-2.49,20.65-7.46,27.41Z"/>
        <path d="M498.1,208.39c0,17.6,14.27,31.87,31.87,31.87h34.12V.01h-65.98v208.38Z"/>
        <path d="M581.99,150.05c0,17.26,3.52,32.68,10.5,46.3,6.98,13.62,17.47,24.39,31.46,32.34,13.98,7.71,30.9,11.57,50.76,11.57l.08-.03c23,0,41.37-4.31,55.15-12.93,13.98-8.62,24.37-21.44,31.14-38.46l-58.21-11.57c-2.72,6.36-6.32,11.14-10.84,14.31-4.31,3.16-9.6,4.76-15.91,4.76-10.15,0-18.06-3.64-23.69-10.9-3.71-4.93-6.18-12.07-7.45-20.77h116.74c.66-5.45,1-12.26,1-20.42,0-15.42-3.52-29.49-10.5-42.21-6.77-12.93-16.92-23.14-30.45-30.64-13.32-7.71-29.21-11.57-47.72-11.57-19.85,0-36.64,3.96-50.41,11.91-13.77,7.71-24.14,18.38-31.14,31.99-7.01,13.62-10.5,29.04-10.5,46.3ZM695.05,113.96c3.37,4.42,5.62,10.45,6.8,18.03h-56.37c1.28-6.76,3.34-12.35,6.24-16.67,5.42-7.71,12.87-11.57,22.34-11.57,8.8,0,15.81,3.4,20.99,10.21Z"/>
        <path d="M898.42,230.91l-.29-.27c-11.05-10.66-16.66-24.2-16.66-40.23,0-8.68,1.76-16.56,5.14-23.66l-25.69,4.58c-7.44,1.41-14.32-4.3-14.32-11.87v-44.39c22.62,0,40.95-18.33,40.95-40.95v-5.37h-40.95V.01h-.19l-41.65,7.89c-14,2.65-24.14,14.89-24.14,29.14v138.18c0,19.94,9.26,39.14,24.85,51.57,9.17,7.32,20.39,11.91,32.03,13.29,11.55,1.37,47.99-5.77,61.86-8.42-.3-.26-.62-.49-.92-.76Z"/>
      </g>
    </g>
  </g>
</svg>